<svg id="Layer_1" data-name="Layer 1" xmlns="http://www.w3.org/2000/svg" viewBox="0 0 50 50"><defs><style>.cls-1{fill:#e44c3c;}.cls-2{fill:#293b8e;}</style></defs><title>logo</title><path class="cls-1" d="M20.55,28.91a2.32,2.32,0,0,1-1.23-.35,10.3,10.3,0,1,1,15.37-6,2.33,2.33,0,0,1-4.5-1.25,5.64,5.64,0,1,0-8.41,3.29,2.33,2.33,0,0,1-1.23,4.32Z"/><path class="cls-1" d="M19.27,37a2.33,2.33,0,0,1-.8-.14,18.25,18.25,0,1,1,23.6-11.35A2.33,2.33,0,0,1,37.65,24a13.59,13.59,0,1,0-17.57,8.45,2.33,2.33,0,0,1-.8,4.53Z"/><path class="cls-2" d="M33.17,48.58A10.18,10.18,0,0,1,23,37.11c.51-4.15.94-8.32,1.42-12.47a2.77,2.77,0,0,0-1-2.48,2.32,2.32,0,0,1-.64-2.49,1.91,1.91,0,0,1,1.81-1.51,3.67,3.67,0,0,1,2.24.8,7.29,7.29,0,0,1,2.27,6.75q-.73,5.92-1.39,11.84a5.57,5.57,0,0,0,5.26,6.39A5.75,5.75,0,0,0,38.8,38.8a5.67,5.67,0,0,0-5.39-6.11,2.43,2.43,0,0,1-2.31-1.31A2.31,2.31,0,0,1,33.36,28a10.27,10.27,0,0,1-.19,20.54Z"/></svg>